<svg id="Component_2_1" data-name="Component 2 – 1" xmlns="http://www.w3.org/2000/svg" width="11.963" height="14.647" viewBox="0 0 11.963 14.647">
  <g id="Component_1_1" data-name="Component 1 – 1">
    <path id="Path_45" data-name="Path 45" d="M11.926,3.274,11.6,2.3a.9.9,0,0,0-.857-.617H8.027V.8a.8.8,0,0,0-.8-.8H4.737a.8.8,0,0,0-.8.8v.885H1.217A.9.9,0,0,0,.36,2.3l-.323.969a.726.726,0,0,0,.688.955h.338l.744,9.2a1.331,1.331,0,0,0,1.319,1.218H8.987a1.331,1.331,0,0,0,1.319-1.218l.744-9.2h.187a.726.726,0,0,0,.688-.955ZM4.793.858H7.169v.829H4.793Zm4.658,12.5a.468.468,0,0,1-.464.429H3.126a.468.468,0,0,1-.464-.429L1.924,4.229h8.265ZM.909,3.371l.265-.795a.045.045,0,0,1,.042-.031h9.529a.045.045,0,0,1,.042.031l.265.795Zm0,0" transform="translate(0 0)" fill="#ff6f00"/>
  </g>
  <path id="Path_46" data-name="Path 46" d="M268.7,174.17h.023a.429.429,0,0,0,.428-.407l.4-7.736a.429.429,0,1,0-.857-.045l-.4,7.736a.429.429,0,0,0,.406.451Zm0,0" transform="translate(-260.621 -160.84)" fill="#ff6f00"/>
  <path id="Path_47" data-name="Path 47" d="M106.216,173.767a.429.429,0,0,0,.428.406h.024a.429.429,0,0,0,.405-.452l-.422-7.736a.429.429,0,0,0-.857.047Zm0,0" transform="translate(-102.767 -160.842)" fill="#ff6f00"/>
  <path id="Path_48" data-name="Path 48" d="M194.683,174.173a.429.429,0,0,0,.429-.429v-7.736a.429.429,0,1,0-.858,0v7.736A.429.429,0,0,0,194.683,174.173Zm0,0" transform="translate(-188.697 -160.842)" fill="#ff6f00"/>
</svg>
